<?xml version="1.0" standalone="no"?>
<!DOCTYPE svg PUBLIC "-//W3C//DTD SVG 20010904//EN"
 "http://www.w3.org/TR/2001/REC-SVG-20010904/DTD/svg10.dtd">
<svg version="1.0" xmlns="http://www.w3.org/2000/svg"
 width="50.000000pt" height="80.000000pt" viewBox="0 0 162.000000 114.000000"
 preserveAspectRatio="xMidYMid meet">

<g transform="translate(0.000000,114.000000) scale(0.100000,-0.100000)"
fill="#000000" stroke="none">
<path d="M32 1112 c-9 -7 -12 -54 -10 -203 l3 -194 198 -3 197 -2 0 205 0 205
-187 0 c-104 0 -194 -4 -201 -8z"/>
<path d="M466 1104 c-13 -13 -16 -45 -16 -199 0 -218 -1 -215 96 -215 l64 0 2
-337 3 -338 203 -3 203 -2 -3 413 -3 412 -33 67 c-35 72 -104 142 -168 173
-85 40 -318 60 -348 29z"/>
<path d="M1055 1108 c-3 -7 -4 -256 -3 -553 l3 -540 70 1 c60 0 79 5 133 34
99 53 161 137 182 249 5 30 10 129 10 222 l0 168 83 3 82 3 3 193 c1 121 -1
200 -8 212 -10 19 -22 20 -281 20 -206 0 -271 -3 -274 -12z"/>
<path d="M41 654 c-19 -24 -21 -40 -21 -159 0 -158 10 -220 50 -302 54 -109
156 -174 278 -176 l67 -2 6 185 c3 102 3 243 1 314 -7 174 3 166 -201 166
l-160 0 -20 -26z"/>
</g>
</svg>
